<?xml version="1.0" encoding="UTF-8"?>
<svg xmlns="http://www.w3.org/2000/svg" width="96" height="96" viewBox="-48 -48 96 96" fill="none">
  <defs>
    <radialGradient id="late_mayhem_125_core" cx="50%" cy="50%" r="55%">
      <stop offset="0%" stop-color="#ffffff" stop-opacity="0.95"/>
      <stop offset="44%" stop-color="#ff9f4a" stop-opacity="0.82"/>
      <stop offset="100%" stop-color="#ff9f4a" stop-opacity="0"/>
    </radialGradient>
    <linearGradient id="late_mayhem_125_hull" x1="-24" y1="-38" x2="24" y2="38">
      <stop offset="0%" stop-color="#142b2f"/>
      <stop offset="54%" stop-color="#101827"/>
      <stop offset="100%" stop-color="#02070d"/>
    </linearGradient>
    <linearGradient id="late_mayhem_125_panel" x1="-28" y1="-24" x2="28" y2="32">
      <stop offset="0%" stop-color="#d870ff" stop-opacity="0.86"/>
      <stop offset="100%" stop-color="#ff9f4a" stop-opacity="0.72"/>
    </linearGradient>
  </defs>
  <ellipse cx="0" cy="26" rx="22" ry="7" fill="#ff9f4a" opacity="0.12"/>
  <g>
    <polygon points="-5.5,-21 -32,-3 -23,15 -10.7,26 -7.5,2" fill="#142b2f" opacity="0.98" stroke="#d870ff" stroke-width="1.55"/>
    <polygon points="7.5,2 10.7,26 23,15 32,-3 5.5,-21" fill="#142b2f" opacity="0.98" stroke="#d870ff" stroke-width="1.55"/>
    <polygon points="-10.1,-15 -25,0 -20,13 -12.5,21 -8.1,1" fill="url(#late_mayhem_125_panel)" opacity="0.46" stroke="#ff9f4a" stroke-width="0.65"/>
    <polygon points="8.1,1 12.5,21 20,13 25,0 10.1,-15" fill="url(#late_mayhem_125_panel)" opacity="0.46" stroke="#ff9f4a" stroke-width="0.65"/>
    <path d="M -29 -1 L -14 -9 L -10.14 21 M 29 -1 L 14 -9 L 10.14 21" stroke="#dffaff" stroke-width="0.6" opacity="0.28"/>
    <path d="M -30 -1 L -38 7 M 30 -1 L 38 7" stroke="#d870ff" stroke-width="2" stroke-linecap="round" opacity="0.62"/>
    <polygon points="0,-40 13,-18 9.4,29 0,40 -9.4,29 -13,-18" fill="url(#late_mayhem_125_hull)" stroke="#ff9f4a" stroke-width="1.65" opacity="0.99"/>
    <polygon points="0,-32 4.9,-11 3.9,25 0,33 -3.9,25 -4.9,-11" fill="#142b2f" stroke="#dffaff" stroke-width="0.75" opacity="0.72"/>
    <path d="M 0 -33 L 0 28" stroke="#ffffff" stroke-width="0.9" opacity="0.34"/>
    <circle cx="0" cy="-7" r="5" fill="#ff9f4a" opacity="0.96"/>
    <circle cx="0" cy="-7" r="9" fill="url(#late_mayhem_125_core)" opacity="0.42"/>
    <path d="M -5.8500000000000005 -28 L -13.850000000000001 -36" stroke="#ff9f4a" stroke-width="1.27" stroke-linecap="round" opacity="0.72"/>
    <path d="M 7.8500000000000005 -28 L 14.850000000000001 -31" stroke="#ff9f4a" stroke-width="1.27" stroke-linecap="round" opacity="0.72"/>
    <path d="M -16 -19 L -22 -16.5 M 16 -19 L 22 -16.5" stroke="#ff9f4a" stroke-width="1.05" opacity="0.36"/>
    <path d="M -16 -7 L -21 -4.5 M 16 -7 L 21 -4.5" stroke="#ff9f4a" stroke-width="1.05" opacity="0.45999999999999996"/>
    <path d="M -16 5 L -20 7.5 M 16 5 L 20 7.5" stroke="#ff9f4a" stroke-width="1.05" opacity="0.56"/>
    <path d="M -16 17 L -22 19.5 M 16 17 L 22 19.5" stroke="#ff9f4a" stroke-width="1.05" opacity="0.66"/>
    <path d="M -8.8 29 L -7 40 L -5.2 29 Z" fill="#ff9f4a" opacity="0.84"/>
    <path d="M -1.8 29 L 0 38 L 1.8 29 Z" fill="#ff9f4a" opacity="0.84"/>
    <path d="M 5.2 29 L 7 37 L 8.8 29 Z" fill="#ff9f4a" opacity="0.84"/>
    <circle cx="-7.15" cy="23" r="1.9" fill="#ff9f4a" opacity="0.74"/>
    <circle cx="7.15" cy="23" r="2.9" fill="#ff9f4a" opacity="0.74"/>
  </g>
</svg>
