<?xml version="1.0" encoding="UTF-8"?>
<svg xmlns="http://www.w3.org/2000/svg" width="96" height="96" viewBox="-48 -48 96 96" fill="none">
  <defs>
    <radialGradient id="late_mayhem_168_core" cx="50%" cy="50%" r="55%">
      <stop offset="0%" stop-color="#ffffff" stop-opacity="0.95"/>
      <stop offset="44%" stop-color="#38d430" stop-opacity="0.82"/>
      <stop offset="100%" stop-color="#38d430" stop-opacity="0"/>
    </radialGradient>
    <linearGradient id="late_mayhem_168_hull" x1="-24" y1="-38" x2="24" y2="38">
      <stop offset="0%" stop-color="#2a1c24"/>
      <stop offset="54%" stop-color="#08131e"/>
      <stop offset="100%" stop-color="#02070d"/>
    </linearGradient>
    <linearGradient id="late_mayhem_168_panel" x1="-28" y1="-24" x2="28" y2="32">
      <stop offset="0%" stop-color="#ffd166" stop-opacity="0.86"/>
      <stop offset="100%" stop-color="#ffd166" stop-opacity="0.72"/>
    </linearGradient>
  </defs>
  <ellipse cx="0" cy="23" rx="25" ry="7" fill="#ffd166" opacity="0.12"/>
  <g>
    <polygon points="-4.6,-21 -26,-5 -18,16 -9,23 -6.4,2" fill="#2a1c24" opacity="0.98" stroke="#ffd166" stroke-width="1.55"/>
    <polygon points="6.4,2 9,23 18,16 26,-5 4.6,-21" fill="#2a1c24" opacity="0.98" stroke="#ffd166" stroke-width="1.55"/>
    <polygon points="-8.6,-15 -19,-2 -15,14 -10.6,18 -6.8,1" fill="url(#late_mayhem_168_panel)" opacity="0.46" stroke="#ffd166" stroke-width="0.65"/>
    <polygon points="6.8,1 10.6,18 15,14 19,-2 8.6,-15" fill="url(#late_mayhem_168_panel)" opacity="0.46" stroke="#ffd166" stroke-width="0.65"/>
    <path d="M -23 -3 L -12 -9 L -8.58 18 M 23 -3 L 12 -9 L 8.58 18" stroke="#dffaff" stroke-width="0.6" opacity="0.28"/>
    <path d="M -24 -3 L -32 5 M 24 -3 L 32 5" stroke="#ffd166" stroke-width="2" stroke-linecap="round" opacity="0.62"/>
    <polygon points="0,-43 11,-18 7.9,26 0,38 -7.9,26 -11,-18" fill="url(#late_mayhem_168_hull)" stroke="#38d430" stroke-width="1.65" opacity="0.99"/>
    <polygon points="0,-35 4.2,-11 3.3,22 0,30 -3.3,22 -4.2,-11" fill="#2a1c24" stroke="#dffaff" stroke-width="0.75" opacity="0.72"/>
    <path d="M 0 -36 L 0 25" stroke="#ffffff" stroke-width="0.9" opacity="0.34"/>
    <path d="M -7 -10 C -2 -18 7 -14 6 -5 C 5 4 -6 4 -7 -10 Z" fill="#38d430" opacity="0.92"/>
    <circle cx="0" cy="-7" r="10" fill="url(#late_mayhem_168_core)" opacity="0.42"/>
    <path d="M -4.95 -31 L -11.95 -39" stroke="#38d430" stroke-width="1.49" stroke-linecap="round" opacity="0.72"/>
    <path d="M 6.95 -31 L 13.95 -34" stroke="#38d430" stroke-width="1.49" stroke-linecap="round" opacity="0.72"/>
    <path d="M 0 -31 L -7 -29" stroke="#38d430" stroke-width="1.49" stroke-linecap="round" opacity="0.72"/>
    <path d="M -14 -18 L -22 -15.5 M 14 -18 L 22 -15.5" stroke="#38d430" stroke-width="1.05" opacity="0.36"/>
    <path d="M -14 -6 L -20 -3.5 M 14 -6 L 20 -3.5" stroke="#38d430" stroke-width="1.05" opacity="0.45999999999999996"/>
    <path d="M -14 6 L -21 8.5 M 14 6 L 21 8.5" stroke="#38d430" stroke-width="1.05" opacity="0.56"/>
    <path d="M -14 18 L -22 20.5 M 14 18 L 22 20.5" stroke="#38d430" stroke-width="1.05" opacity="0.66"/>
    <path d="M -12.3 26 L -10.5 38 L -8.7 26 Z" fill="#ffd166" opacity="0.84"/>
    <path d="M -5.3 26 L -3.5 39 L -1.7 26 Z" fill="#ffd166" opacity="0.84"/>
    <path d="M 1.7 26 L 3.5 36 L 5.3 26 Z" fill="#ffd166" opacity="0.84"/>
    <path d="M 8.7 26 L 10.5 38 L 12.3 26 Z" fill="#ffd166" opacity="0.84"/>
    <circle cx="-6.050000000000001" cy="20" r="2.9" fill="#38d430" opacity="0.74"/>
    <circle cx="6.050000000000001" cy="20" r="1.9" fill="#38d430" opacity="0.74"/>
  </g>
</svg>
