<?xml version="1.0" encoding="UTF-8"?>
<svg xmlns="http://www.w3.org/2000/svg" width="96" height="96" viewBox="-48 -48 96 96" fill="none">
  <defs>
    <radialGradient id="late_mayhem_124_glow" cx="50%" cy="42%" r="58%">
      <stop offset="0%" stop-color="#ffef6e" stop-opacity="0.7"/>
      <stop offset="46%" stop-color="#84a8ff" stop-opacity="0.28"/>
      <stop offset="100%" stop-color="#35ff92" stop-opacity="0"/>
    </radialGradient>
    <linearGradient id="late_mayhem_124_hull" x1="-24" y1="-38" x2="24" y2="38">
      <stop offset="0%" stop-color="#ffef6e"/>
      <stop offset="48%" stop-color="#84a8ff"/>
      <stop offset="100%" stop-color="#35ff92"/>
    </linearGradient>
  </defs>
  <g transform="rotate(-6)">
    <ellipse cx="0" cy="0" rx="34" ry="17" stroke="#35ff92" stroke-width="1.25" opacity="0.32"/>
  </g>
  <circle cx="0" cy="0" r="39" fill="url(#late_mayhem_124_glow)" opacity="0.72"/>
  <g>
    <polygon points="-4.2,-20 -34,-2 -22,17 -7.8,28 -6.6,4" fill="#35ff92" opacity="0.88" stroke="#ffef6e" stroke-width="1.3"/>
    <polygon points="6.6,4 7.8,28 22,17 34,-2 4.2,-20" fill="#35ff92" opacity="0.88" stroke="#ffef6e" stroke-width="1.3"/>
    <polygon points="0,-41 12,-18 9.4,31 0,42 -9.4,31 -12,-18" fill="url(#late_mayhem_124_hull)" stroke="#f7fbff" stroke-width="1.45" opacity="0.96"/>
    <path d="M 0 -36 L 0 32" stroke="#ffffff" stroke-width="1.1" opacity="0.44"/>
    <path d="M -8 -10 C -2 -20 8 -14 7 -5 C 5 5 -7 5 -8 -10 Z" fill="#ffef6e" opacity="0.88"/>
    <path d="M -5.4 -30 L -13.4 -39" stroke="#ffef6e" stroke-width="1.2" stroke-linecap="round" opacity="0.8"/>
    <path d="M -16 -20 L -21 -17 M 16 -20 L 21 -17" stroke="#ffef6e" stroke-width="1.15" opacity="0.4"/>
    <path d="M -16 -8 L -20 -5 M 16 -8 L 20 -5" stroke="#ffef6e" stroke-width="1.15" opacity="0.5"/>
    <path d="M -16 4 L -22 7 M 16 4 L 22 7" stroke="#ffef6e" stroke-width="1.15" opacity="0.6000000000000001"/>
    <path d="M -16 16 L -21 19 M 16 16 L 21 19" stroke="#ffef6e" stroke-width="1.15" opacity="0.7000000000000001"/>
    <path d="M -5.7 31 L -3.5 48 L -1.2999999999999998 31 Z" fill="#35ff92" opacity="0.78"/>
    <path d="M 1.2999999999999998 31 L 3.5 44 L 5.7 31 Z" fill="#35ff92" opacity="0.78"/>
    <circle cx="-6.6000000000000005" cy="26" r="3.2" fill="#ffef6e" opacity="0.72"/>
    <circle cx="6.6000000000000005" cy="26" r="2.2" fill="#ffef6e" opacity="0.72"/>
  </g>
</svg>
