<?xml version="1.0" encoding="UTF-8"?>
<svg xmlns="http://www.w3.org/2000/svg" width="96" height="96" viewBox="-48 -48 96 96" fill="none">
  <defs>
    <radialGradient id="late_mayhem_091_core" cx="50%" cy="50%" r="55%">
      <stop offset="0%" stop-color="#ffffff" stop-opacity="0.95"/>
      <stop offset="44%" stop-color="#ff5c8a" stop-opacity="0.82"/>
      <stop offset="100%" stop-color="#ff5c8a" stop-opacity="0"/>
    </radialGradient>
    <linearGradient id="late_mayhem_091_hull" x1="-24" y1="-38" x2="24" y2="38">
      <stop offset="0%" stop-color="#2a1c24"/>
      <stop offset="54%" stop-color="#08131e"/>
      <stop offset="100%" stop-color="#02070d"/>
    </linearGradient>
    <linearGradient id="late_mayhem_091_panel" x1="-28" y1="-24" x2="28" y2="32">
      <stop offset="0%" stop-color="#f8ff8a" stop-opacity="0.86"/>
      <stop offset="100%" stop-color="#5dfcff" stop-opacity="0.72"/>
    </linearGradient>
  </defs>
  <ellipse cx="0" cy="27" rx="20" ry="7" fill="#5dfcff" opacity="0.12"/>
  <g>
    <polygon points="-3.8,-21 -30,-5 -20,16 -7.4,27 -5.2,2" fill="#2a1c24" opacity="0.98" stroke="#f8ff8a" stroke-width="1.55"/>
    <polygon points="5.2,2 7.4,27 20,16 30,-5 3.8,-21" fill="#2a1c24" opacity="0.98" stroke="#f8ff8a" stroke-width="1.55"/>
    <polygon points="-7,-15 -23,-2 -17,14 -8.6,22 -5.6,1" fill="url(#late_mayhem_091_panel)" opacity="0.46" stroke="#5dfcff" stroke-width="0.65"/>
    <polygon points="5.6,1 8.6,22 17,14 23,-2 7,-15" fill="url(#late_mayhem_091_panel)" opacity="0.46" stroke="#5dfcff" stroke-width="0.65"/>
    <path d="M -27 -3 L -10 -9 L -7.0200000000000005 22 M 27 -3 L 10 -9 L 7.0200000000000005 22" stroke="#dffaff" stroke-width="0.6" opacity="0.28"/>
    <path d="M -28 -3 L -36 5 M 28 -3 L 36 5" stroke="#f8ff8a" stroke-width="2" stroke-linecap="round" opacity="0.62"/>
    <polygon points="0,-42 9,-18 6.5,30 0,39 -6.5,30 -9,-18" fill="url(#late_mayhem_091_hull)" stroke="#ff5c8a" stroke-width="1.65" opacity="0.99"/>
    <polygon points="0,-34 3.4,-11 2.7,26 0,34 -2.7,26 -3.4,-11" fill="#2a1c24" stroke="#dffaff" stroke-width="0.75" opacity="0.72"/>
    <path d="M 0 -35 L 0 29" stroke="#ffffff" stroke-width="0.9" opacity="0.34"/>
    <polygon points="0,-17 7,-7 0,4 -7,-7" fill="#ff5c8a" opacity="0.96"/>
    <circle cx="0" cy="-7" r="8" fill="url(#late_mayhem_091_core)" opacity="0.42"/>
    <path d="M -4.05 -30 L -12.05 -38" stroke="#ff5c8a" stroke-width="1.05" stroke-linecap="round" opacity="0.72"/>
    <path d="M -12 -20 L -20 -17.5 M 12 -20 L 20 -17.5" stroke="#ff5c8a" stroke-width="1.05" opacity="0.36"/>
    <path d="M -12 -8 L -18 -5.5 M 12 -8 L 18 -5.5" stroke="#ff5c8a" stroke-width="1.05" opacity="0.45999999999999996"/>
    <path d="M -12 4 L -19 6.5 M 12 4 L 19 6.5" stroke="#ff5c8a" stroke-width="1.05" opacity="0.56"/>
    <path d="M -12 16 L -20 18.5 M 12 16 L 20 18.5" stroke="#ff5c8a" stroke-width="1.05" opacity="0.66"/>
    <path d="M -5.3 30 L -3.5 40 L -1.7 30 Z" fill="#5dfcff" opacity="0.84"/>
    <path d="M 1.7 30 L 3.5 42 L 5.3 30 Z" fill="#5dfcff" opacity="0.84"/>
    <circle cx="-4.95" cy="24" r="1.9" fill="#ff5c8a" opacity="0.74"/>
    <circle cx="4.95" cy="24" r="2.9" fill="#ff5c8a" opacity="0.74"/>
  </g>
</svg>
