<?xml version="1.0" encoding="UTF-8"?>
<svg xmlns="http://www.w3.org/2000/svg" width="96" height="96" viewBox="-48 -48 96 96" fill="none">
  <defs>
    <radialGradient id="late_mayhem_002_glow" cx="50%" cy="42%" r="58%">
      <stop offset="0%" stop-color="#ff934f" stop-opacity="0.7"/>
      <stop offset="46%" stop-color="#8a5cff" stop-opacity="0.28"/>
      <stop offset="100%" stop-color="#ff934f" stop-opacity="0"/>
    </radialGradient>
    <linearGradient id="late_mayhem_002_hull" x1="-24" y1="-38" x2="24" y2="38">
      <stop offset="0%" stop-color="#ff934f"/>
      <stop offset="48%" stop-color="#8a5cff"/>
      <stop offset="100%" stop-color="#ff934f"/>
    </linearGradient>
  </defs>
  <g transform="rotate(-17)">
    <ellipse cx="0" cy="0" rx="32" ry="18" stroke="#ff934f" stroke-width="1.25" opacity="0.32"/>
  </g>
  <circle cx="0" cy="0" r="37" fill="url(#late_mayhem_002_glow)" opacity="0.72"/>
  <g>
    <polygon points="-5.6,-20 -41,-9 -25,15 -10.4,29 -8.8,4" fill="#ff934f" opacity="0.88" stroke="#ff934f" stroke-width="1.3"/>
    <polygon points="8.8,4 10.4,29 25,15 41,-9 5.6,-20" fill="#ff934f" opacity="0.88" stroke="#ff934f" stroke-width="1.3"/>
    <polygon points="0,-39 16,-18 12.5,32 0,40 -12.5,32 -16,-18" fill="url(#late_mayhem_002_hull)" stroke="#f7fbff" stroke-width="1.45" opacity="0.96"/>
    <path d="M 0 -34 L 0 33" stroke="#ffffff" stroke-width="1.1" opacity="0.44"/>
    <rect x="-6" y="-14" width="11" height="14" rx="3" fill="#ff934f" opacity="0.9"/>
    <path d="M -7.2 -28 L -22.2 -37" stroke="#ff934f" stroke-width="1.45" stroke-linecap="round" opacity="0.8"/>
    <path d="M 9.2 -28 L 20.2 -32" stroke="#ff934f" stroke-width="1.45" stroke-linecap="round" opacity="0.8"/>
    <path d="M -20 -19 L -28 -16 M 20 -19 L 28 -16" stroke="#ff934f" stroke-width="1.15" opacity="0.4"/>
    <path d="M -20 -7 L -28 -4 M 20 -7 L 28 -4" stroke="#ff934f" stroke-width="1.15" opacity="0.5"/>
    <path d="M -20 5 L -26 8 M 20 5 L 26 8" stroke="#ff934f" stroke-width="1.15" opacity="0.6000000000000001"/>
    <path d="M -20 17 L -27 20 M 20 17 L 27 20" stroke="#ff934f" stroke-width="1.15" opacity="0.7000000000000001"/>
    <path d="M -9.2 32 L -7 46 L -4.8 32 Z" fill="#ff934f" opacity="0.78"/>
    <path d="M -2.2 32 L 0 43 L 2.2 32 Z" fill="#ff934f" opacity="0.78"/>
    <path d="M 4.8 32 L 7 46 L 9.2 32 Z" fill="#ff934f" opacity="0.78"/>
    <circle cx="-8.8" cy="27" r="3.2" fill="#ff934f" opacity="0.72"/>
    <circle cx="8.8" cy="27" r="2.2" fill="#ff934f" opacity="0.72"/>
  </g>
</svg>
