<?xml version="1.0" encoding="UTF-8"?>
<svg xmlns="http://www.w3.org/2000/svg" width="96" height="96" viewBox="-48 -48 96 96" fill="none">
  <defs>
    <radialGradient id="late_mayhem_101_glow" cx="50%" cy="42%" r="58%">
      <stop offset="0%" stop-color="#ff9f4a" stop-opacity="0.7"/>
      <stop offset="46%" stop-color="#ff9f4a" stop-opacity="0.28"/>
      <stop offset="100%" stop-color="#d870ff" stop-opacity="0"/>
    </radialGradient>
    <linearGradient id="late_mayhem_101_hull" x1="-24" y1="-38" x2="24" y2="38">
      <stop offset="0%" stop-color="#ff9f4a"/>
      <stop offset="48%" stop-color="#ff9f4a"/>
      <stop offset="100%" stop-color="#d870ff"/>
    </linearGradient>
  </defs>
  <g transform="rotate(8)">
    <ellipse cx="0" cy="0" rx="35" ry="14" stroke="#d870ff" stroke-width="1.25" opacity="0.32"/>
  </g>
  <circle cx="0" cy="0" r="40" fill="url(#late_mayhem_101_glow)" opacity="0.72"/>
  <g>
    <polygon points="-5.6,-20 -28,1 -18,18 -10.4,28 -8.8,4" fill="#d870ff" opacity="0.88" stroke="#ff9f4a" stroke-width="1.3"/>
    <polygon points="8.8,4 10.4,28 18,18 28,1 5.6,-20" fill="#d870ff" opacity="0.88" stroke="#ff9f4a" stroke-width="1.3"/>
    <polygon points="0,-38 16,-18 12.5,31 0,41 -12.5,31 -16,-18" fill="url(#late_mayhem_101_hull)" stroke="#f7fbff" stroke-width="1.45" opacity="0.96"/>
    <path d="M 0 -33 L 0 32" stroke="#ffffff" stroke-width="1.1" opacity="0.44"/>
    <circle cx="0" cy="-7" r="5" fill="#ff9f4a" opacity="0.92"/>
    <path d="M -7.2 -27 L -16.2 -36" stroke="#ff9f4a" stroke-width="1.45" stroke-linecap="round" opacity="0.8"/>
    <path d="M 9.2 -27 L 21.2 -31" stroke="#ff9f4a" stroke-width="1.45" stroke-linecap="round" opacity="0.8"/>
    <path d="M -20 -19 L -28 -16 M 20 -19 L 28 -16" stroke="#ff9f4a" stroke-width="1.15" opacity="0.4"/>
    <path d="M -20 -7 L -28 -4 M 20 -7 L 28 -4" stroke="#ff9f4a" stroke-width="1.15" opacity="0.5"/>
    <path d="M -20 5 L -26 8 M 20 5 L 26 8" stroke="#ff9f4a" stroke-width="1.15" opacity="0.6000000000000001"/>
    <path d="M -20 17 L -25 20 M 20 17 L 25 20" stroke="#ff9f4a" stroke-width="1.15" opacity="0.7000000000000001"/>
    <path d="M -9.2 31 L -7 45 L -4.8 31 Z" fill="#d870ff" opacity="0.78"/>
    <path d="M -2.2 31 L 0 47 L 2.2 31 Z" fill="#d870ff" opacity="0.78"/>
    <path d="M 4.8 31 L 7 43 L 9.2 31 Z" fill="#d870ff" opacity="0.78"/>
    <circle cx="-8.8" cy="26" r="2.2" fill="#ff9f4a" opacity="0.72"/>
    <circle cx="8.8" cy="26" r="3.2" fill="#ff9f4a" opacity="0.72"/>
  </g>
</svg>
