<?xml version="1.0" encoding="UTF-8"?>
<svg xmlns="http://www.w3.org/2000/svg" width="96" height="96" viewBox="-48 -48 96 96" fill="none">
  <defs>
    <radialGradient id="late_mayhem_142_glow" cx="50%" cy="42%" r="58%">
      <stop offset="0%" stop-color="#a6ff4d" stop-opacity="0.7"/>
      <stop offset="46%" stop-color="#a6ff4d" stop-opacity="0.28"/>
      <stop offset="100%" stop-color="#7ab7ff" stop-opacity="0"/>
    </radialGradient>
    <linearGradient id="late_mayhem_142_hull" x1="-24" y1="-38" x2="24" y2="38">
      <stop offset="0%" stop-color="#a6ff4d"/>
      <stop offset="48%" stop-color="#a6ff4d"/>
      <stop offset="100%" stop-color="#7ab7ff"/>
    </linearGradient>
  </defs>
  <g transform="rotate(12)">
    <ellipse cx="0" cy="0" rx="34" ry="17" stroke="#7ab7ff" stroke-width="1.25" opacity="0.32"/>
  </g>
  <circle cx="0" cy="0" r="41" fill="url(#late_mayhem_142_glow)" opacity="0.72"/>
  <g>
    <polygon points="-3.8,-20 -34,-5 -22,19 -7.1,28 -6.1,4" fill="#7ab7ff" opacity="0.88" stroke="#a6ff4d" stroke-width="1.3"/>
    <polygon points="6.1,4 7.2,28 22,19 34,-5 3.9,-20" fill="#7ab7ff" opacity="0.88" stroke="#a6ff4d" stroke-width="1.3"/>
    <polygon points="0,-39 11,-18 8.6,31 0,40 -8.6,31 -11,-18" fill="url(#late_mayhem_142_hull)" stroke="#f7fbff" stroke-width="1.45" opacity="0.96"/>
    <path d="M 0 -34 L 0 32" stroke="#ffffff" stroke-width="1.1" opacity="0.44"/>
    <rect x="-5" y="-14" width="13" height="14" rx="3" fill="#a6ff4d" opacity="0.9"/>
    <path d="M -4.95 -28 L -12.95 -37" stroke="#a6ff4d" stroke-width="1.2" stroke-linecap="round" opacity="0.8"/>
    <path d="M -15 -20 L -19 -17 M 15 -20 L 19 -17" stroke="#a6ff4d" stroke-width="1.15" opacity="0.4"/>
    <path d="M -15 -8 L -19 -5 M 15 -8 L 19 -5" stroke="#a6ff4d" stroke-width="1.15" opacity="0.5"/>
    <path d="M -15 4 L -21 7 M 15 4 L 21 7" stroke="#a6ff4d" stroke-width="1.15" opacity="0.6000000000000001"/>
    <path d="M -15 16 L -22 19 M 15 16 L 22 19" stroke="#a6ff4d" stroke-width="1.15" opacity="0.7000000000000001"/>
    <path d="M -5.7 31 L -3.5 42 L -1.2999999999999998 31 Z" fill="#7ab7ff" opacity="0.78"/>
    <path d="M 1.2999999999999998 31 L 3.5 41 L 5.7 31 Z" fill="#7ab7ff" opacity="0.78"/>
    <circle cx="-6.050000000000001" cy="26" r="3.2" fill="#a6ff4d" opacity="0.72"/>
    <circle cx="6.050000000000001" cy="26" r="2.2" fill="#a6ff4d" opacity="0.72"/>
  </g>
</svg>
