<?xml version="1.0" encoding="UTF-8"?>
<svg xmlns="http://www.w3.org/2000/svg" width="96" height="96" viewBox="-48 -48 96 96" fill="none">
  <defs>
    <radialGradient id="late_mayhem_034_glow" cx="50%" cy="42%" r="58%">
      <stop offset="0%" stop-color="#7cffcb" stop-opacity="0.7"/>
      <stop offset="46%" stop-color="#8a5cff" stop-opacity="0.28"/>
      <stop offset="100%" stop-color="#ff934f" stop-opacity="0"/>
    </radialGradient>
    <linearGradient id="late_mayhem_034_hull" x1="-24" y1="-38" x2="24" y2="38">
      <stop offset="0%" stop-color="#7cffcb"/>
      <stop offset="48%" stop-color="#8a5cff"/>
      <stop offset="100%" stop-color="#ff934f"/>
    </linearGradient>
  </defs>
  <g transform="rotate(15)">
    <ellipse cx="0" cy="0" rx="34" ry="15" stroke="#ff934f" stroke-width="1.25" opacity="0.32"/>
  </g>
  <circle cx="0" cy="0" r="37" fill="url(#late_mayhem_034_glow)" opacity="0.72"/>
  <g>
    <polygon points="-3.5,-20 -32,1 -22,15 -6.5,27 -5.5,4" fill="#ff934f" opacity="0.88" stroke="#7cffcb" stroke-width="1.3"/>
    <polygon points="5.5,4 6.5,27 22,15 32,1 3.5,-20" fill="#ff934f" opacity="0.88" stroke="#7cffcb" stroke-width="1.3"/>
    <polygon points="0,-41 10,-18 7.8,30 0,40 -7.8,30 -10,-18" fill="url(#late_mayhem_034_hull)" stroke="#f7fbff" stroke-width="1.45" opacity="0.96"/>
    <path d="M 0 -36 L 0 31" stroke="#ffffff" stroke-width="1.1" opacity="0.44"/>
    <rect x="-5" y="-14" width="13" height="16" rx="3" fill="#7cffcb" opacity="0.9"/>
    <path d="M -4.5 -30 L -16.5 -39" stroke="#7cffcb" stroke-width="1.2" stroke-linecap="round" opacity="0.8"/>
    <path d="M -14 -20 L -19 -17 M 14 -20 L 19 -17" stroke="#7cffcb" stroke-width="1.15" opacity="0.4"/>
    <path d="M -14 -8 L -18 -5 M 14 -8 L 18 -5" stroke="#7cffcb" stroke-width="1.15" opacity="0.5"/>
    <path d="M -14 4 L -18 7 M 14 4 L 18 7" stroke="#7cffcb" stroke-width="1.15" opacity="0.6000000000000001"/>
    <path d="M -14 16 L -18 19 M 14 16 L 18 19" stroke="#7cffcb" stroke-width="1.15" opacity="0.7000000000000001"/>
    <path d="M -5.7 30 L -3.5 47 L -1.2999999999999998 30 Z" fill="#ff934f" opacity="0.78"/>
    <path d="M 1.2999999999999998 30 L 3.5 47 L 5.7 30 Z" fill="#ff934f" opacity="0.78"/>
    <circle cx="-5.5" cy="25" r="3.2" fill="#7cffcb" opacity="0.72"/>
    <circle cx="5.5" cy="25" r="2.2" fill="#7cffcb" opacity="0.72"/>
  </g>
</svg>
