<?xml version="1.0" encoding="UTF-8"?>
<svg xmlns="http://www.w3.org/2000/svg" width="96" height="96" viewBox="-48 -48 96 96" fill="none">
  <defs>
    <radialGradient id="late_mayhem_155_glow" cx="50%" cy="42%" r="58%">
      <stop offset="0%" stop-color="#ff5c8a" stop-opacity="0.7"/>
      <stop offset="46%" stop-color="#ff5c8a" stop-opacity="0.28"/>
      <stop offset="100%" stop-color="#ff5c8a" stop-opacity="0"/>
    </radialGradient>
    <linearGradient id="late_mayhem_155_hull" x1="-24" y1="-38" x2="24" y2="38">
      <stop offset="0%" stop-color="#ff5c8a"/>
      <stop offset="48%" stop-color="#ff5c8a"/>
      <stop offset="100%" stop-color="#ff5c8a"/>
    </linearGradient>
  </defs>
  <g transform="rotate(-12)">
    <ellipse cx="0" cy="0" rx="35" ry="17" stroke="#ff5c8a" stroke-width="1.25" opacity="0.32"/>
  </g>
  <circle cx="0" cy="0" r="38" fill="url(#late_mayhem_155_glow)" opacity="0.72"/>
  <g>
    <polygon points="-5.9,-20 -39,5 -25,16 -11,30 -9.4,4" fill="#ff5c8a" opacity="0.88" stroke="#ff5c8a" stroke-width="1.3"/>
    <polygon points="9.4,4 11.1,30 25,16 39,5 5.9,-20" fill="#ff5c8a" opacity="0.88" stroke="#ff5c8a" stroke-width="1.3"/>
    <polygon points="0,-42 17,-18 13.3,33 0,40 -13.3,33 -17,-18" fill="url(#late_mayhem_155_hull)" stroke="#f7fbff" stroke-width="1.45" opacity="0.96"/>
    <path d="M 0 -37 L 0 34" stroke="#ffffff" stroke-width="1.1" opacity="0.44"/>
    <polygon points="0,-18 8,-7 0,5 -8,-7" fill="#ff5c8a" opacity="0.92"/>
    <path d="M -7.65 -31 L -16.65 -40" stroke="#ff5c8a" stroke-width="1.45" stroke-linecap="round" opacity="0.8"/>
    <path d="M 9.65 -31 L 21.65 -35" stroke="#ff5c8a" stroke-width="1.45" stroke-linecap="round" opacity="0.8"/>
    <path d="M -21 -19 L -28 -16 M 21 -19 L 28 -16" stroke="#ff5c8a" stroke-width="1.15" opacity="0.4"/>
    <path d="M -21 -7 L -29 -4 M 21 -7 L 29 -4" stroke="#ff5c8a" stroke-width="1.15" opacity="0.5"/>
    <path d="M -21 5 L -29 8 M 21 5 L 29 8" stroke="#ff5c8a" stroke-width="1.15" opacity="0.6000000000000001"/>
    <path d="M -21 17 L -27 20 M 21 17 L 27 20" stroke="#ff5c8a" stroke-width="1.15" opacity="0.7000000000000001"/>
    <path d="M -9.2 33 L -7 43 L -4.8 33 Z" fill="#ff5c8a" opacity="0.78"/>
    <path d="M -2.2 33 L 0 42 L 2.2 33 Z" fill="#ff5c8a" opacity="0.78"/>
    <path d="M 4.8 33 L 7 46 L 9.2 33 Z" fill="#ff5c8a" opacity="0.78"/>
    <circle cx="-9.350000000000001" cy="28" r="2.2" fill="#ff5c8a" opacity="0.72"/>
    <circle cx="9.350000000000001" cy="28" r="3.2" fill="#ff5c8a" opacity="0.72"/>
  </g>
</svg>
