<svg xmlns="http://www.w3.org/2000/svg" viewBox="0 0 256 256" role="img" aria-label="Nova Swarm sector 029 signal emblem">
<defs>
<radialGradient id="g" cx="50%" cy="48%" r="48%"><stop offset="0%" stop-color="hsl(283 100% 72%)"/><stop offset="46%" stop-color="hsl(70 100% 45%)"/><stop offset="100%" stop-color="#020712"/></radialGradient>
<filter id="glow" x="-35%" y="-35%" width="170%" height="170%"><feGaussianBlur stdDeviation="3.2" result="b"/><feMerge><feMergeNode in="b"/><feMergeNode in="SourceGraphic"/></feMerge></filter>
</defs>
<rect width="256" height="256" fill="#020712"/>
<circle cx="128" cy="128" r="106" fill="url(#g)" opacity="0.32"/>
<circle cx="44.6" cy="111.8" r="0.98" fill="hsl(283 100% 75%)" opacity="0.35"/>
<circle cx="219.6" cy="70.8" r="1.26" fill="hsl(304 100% 75%)" opacity="0.45"/>
<circle cx="114.3" cy="179.2" r="1.54" fill="hsl(325 100% 75%)" opacity="0.55"/>
<circle cx="92.3" cy="60.9" r="0.70" fill="hsl(346 100% 75%)" opacity="0.65"/>
<circle cx="221.6" cy="160.2" r="0.98" fill="hsl(7 100% 75%)" opacity="0.75"/>
<circle cx="87.8" cy="145.9" r="1.26" fill="hsl(28 100% 75%)" opacity="0.35"/>
<circle cx="154.2" cy="66.3" r="1.54" fill="hsl(49 100% 75%)" opacity="0.45"/>
<circle cx="158.8" cy="212.6" r="0.70" fill="hsl(70 100% 75%)" opacity="0.55"/>
<circle cx="27.3" cy="76.7" r="0.98" fill="hsl(91 100% 75%)" opacity="0.65"/>
<circle cx="183.8" cy="112.0" r="1.26" fill="hsl(112 100% 75%)" opacity="0.75"/>
<circle cx="86.3" cy="197.4" r="1.54" fill="hsl(133 100% 75%)" opacity="0.35"/>
<circle cx="106.4" cy="26.3" r="0.70" fill="hsl(154 100% 75%)" opacity="0.45"/>
<circle cx="168.1" cy="156.1" r="0.98" fill="hsl(175 100% 75%)" opacity="0.55"/>
<circle cx="56.7" cy="138.0" r="1.26" fill="hsl(196 100% 75%)" opacity="0.65"/>
<circle cx="187.8" cy="54.2" r="1.54" fill="hsl(217 100% 75%)" opacity="0.75"/>
<circle cx="130.8" cy="167.9" r="0.70" fill="hsl(238 100% 75%)" opacity="0.35"/>
<circle cx="81.9" cy="85.0" r="0.98" fill="hsl(259 100% 75%)" opacity="0.45"/>
<circle cx="214.0" cy="128.0" r="1.26" fill="hsl(280 100% 75%)" opacity="0.55"/>
<circle cx="48.3" cy="202.3" r="1.54" fill="hsl(301 100% 75%)" opacity="0.65"/>
<circle cx="131.8" cy="74.1" r="0.70" fill="hsl(322 100% 75%)" opacity="0.75"/>
<circle cx="176.5" cy="187.8" r="0.98" fill="hsl(343 100% 75%)" opacity="0.35"/>
<circle cx="29.0" cy="114.1" r="1.26" fill="hsl(4 100% 75%)" opacity="0.45"/>
<g filter="url(#glow)">
<circle cx="128" cy="128" r="36" fill="none" stroke="hsl(70 96% 58%)" stroke-width="1.2" stroke-dasharray="9 5" opacity="0.45"/>
<circle cx="128" cy="128" r="56" fill="none" stroke="hsl(90 96% 58%)" stroke-width="1.2" stroke-dasharray="10 6" opacity="0.56"/>
<circle cx="128" cy="128" r="76" fill="none" stroke="hsl(110 96% 58%)" stroke-width="2.4" stroke-dasharray="11 7" opacity="0.67"/>
<path d="M163.0 128.0 L218.0 128.0" stroke="hsl(283 100% 62%)" stroke-width="2.6" stroke-linecap="round"/>
<path d="M160.4 151.5 L191.1 173.8" stroke="hsl(296 100% 62%)" stroke-width="1.4" stroke-linecap="round"/>
<path d="M141.9 170.8 L154.0 207.9" stroke="hsl(309 100% 62%)" stroke-width="1.4" stroke-linecap="round"/>
<path d="M118.7 156.5 L100.2 213.6" stroke="hsl(322 100% 62%)" stroke-width="2.6" stroke-linecap="round"/>
<path d="M99.7 148.6 L64.9 173.8" stroke="hsl(335 100% 62%)" stroke-width="1.4" stroke-linecap="round"/>
<path d="M88.0 128.0 L44.0 128.0" stroke="hsl(348 100% 62%)" stroke-width="1.4" stroke-linecap="round"/>
<path d="M91.6 101.5 L55.2 75.1" stroke="hsl(1 100% 62%)" stroke-width="2.6" stroke-linecap="round"/>
<path d="M118.7 99.5 L103.9 53.8" stroke="hsl(14 100% 62%)" stroke-width="1.4" stroke-linecap="round"/>
<path d="M138.8 94.7 L154.0 48.1" stroke="hsl(27 100% 62%)" stroke-width="1.4" stroke-linecap="round"/>
<path d="M160.4 104.5 L200.8 75.1" stroke="hsl(40 100% 62%)" stroke-width="2.6" stroke-linecap="round"/>
<path d="M128 66 L161 128 L128 190 L95 128 Z" fill="none" stroke="hsl(189 100% 70%)" stroke-width="3.4"/>
<path d="M128 67 L150 128 L128 189 L106 128 Z" fill="hsl(283 100% 56%)" opacity="0.24"/>
<circle cx="128" cy="128" r="14" fill="hsl(283 100% 72%)"/>
</g>
</svg>
