<svg xmlns="http://www.w3.org/2000/svg" viewBox="0 0 256 256" role="img" aria-label="Nova Swarm sector 130 signal emblem">
<defs>
<radialGradient id="g" cx="50%" cy="48%" r="48%"><stop offset="0%" stop-color="hsl(350 100% 72%)"/><stop offset="46%" stop-color="hsl(164 100% 45%)"/><stop offset="100%" stop-color="#020712"/></radialGradient>
<filter id="glow" x="-35%" y="-35%" width="170%" height="170%"><feGaussianBlur stdDeviation="3.2" result="b"/><feMerge><feMergeNode in="b"/><feMergeNode in="SourceGraphic"/></feMerge></filter>
</defs>
<rect width="256" height="256" fill="#020712"/>
<circle cx="128" cy="128" r="106" fill="url(#g)" opacity="0.32"/>
<circle cx="185.9" cy="59.1" r="1.26" fill="hsl(350 100% 75%)" opacity="0.35"/>
<circle cx="133.9" cy="240.8" r="1.54" fill="hsl(11 100% 75%)" opacity="0.45"/>
<circle cx="86.3" cy="87.7" r="0.70" fill="hsl(32 100% 75%)" opacity="0.55"/>
<circle cx="209.0" cy="129.4" r="0.98" fill="hsl(53 100% 75%)" opacity="0.65"/>
<circle cx="50.7" cy="197.6" r="1.26" fill="hsl(74 100% 75%)" opacity="0.75"/>
<circle cx="132.3" cy="79.2" r="1.54" fill="hsl(95 100% 75%)" opacity="0.35"/>
<circle cx="172.3" cy="184.7" r="0.70" fill="hsl(116 100% 75%)" opacity="0.45"/>
<circle cx="34.2" cy="113.1" r="0.98" fill="hsl(137 100% 75%)" opacity="0.55"/>
<circle cx="161.2" cy="105.6" r="1.26" fill="hsl(158 100% 75%)" opacity="0.65"/>
<circle cx="113.8" cy="189.4" r="1.54" fill="hsl(179 100% 75%)" opacity="0.75"/>
<circle cx="85.0" cy="53.5" r="0.70" fill="hsl(200 100% 75%)" opacity="0.35"/>
<circle cx="232.2" cy="159.9" r="0.98" fill="hsl(221 100% 75%)" opacity="0.45"/>
<circle cx="79.5" cy="151.7" r="1.26" fill="hsl(242 100% 75%)" opacity="0.55"/>
<circle cx="155.6" cy="56.1" r="1.54" fill="hsl(263 100% 75%)" opacity="0.65"/>
<circle cx="165.5" cy="220.7" r="0.70" fill="hsl(284 100% 75%)" opacity="0.75"/>
<circle cx="87.2" cy="109.0" r="0.98" fill="hsl(305 100% 75%)" opacity="0.35"/>
<circle cx="192.7" cy="107.0" r="1.26" fill="hsl(326 100% 75%)" opacity="0.45"/>
<circle cx="83.9" cy="207.6" r="1.54" fill="hsl(347 100% 75%)" opacity="0.55"/>
<circle cx="100.4" cy="17.4" r="0.70" fill="hsl(8 100% 75%)" opacity="0.65"/>
<circle cx="177.5" cy="160.1" r="0.98" fill="hsl(29 100% 75%)" opacity="0.75"/>
<circle cx="47.2" cy="142.2" r="1.26" fill="hsl(50 100% 75%)" opacity="0.35"/>
<circle cx="191.2" cy="44.1" r="1.54" fill="hsl(71 100% 75%)" opacity="0.45"/>
<g filter="url(#glow)">
<circle cx="128" cy="128" r="32" fill="none" stroke="hsl(164 96% 58%)" stroke-width="1.2" stroke-dasharray="11 5" opacity="0.45"/>
<circle cx="128" cy="128" r="52" fill="none" stroke="hsl(184 96% 58%)" stroke-width="1.2" stroke-dasharray="12 6" opacity="0.56"/>
<circle cx="128" cy="128" r="72" fill="none" stroke="hsl(204 96% 58%)" stroke-width="1.2" stroke-dasharray="13 7" opacity="0.67"/>
<circle cx="128" cy="128" r="92" fill="none" stroke="hsl(224 96% 58%)" stroke-width="2.4" stroke-dasharray="14 8" opacity="0.78"/>
<path d="M168.0 128.0 L212.0 128.0" stroke="hsl(350 100% 62%)" stroke-width="2.6" stroke-linecap="round"/>
<path d="M167.0 150.5 L205.9 173.0" stroke="hsl(3 100% 62%)" stroke-width="1.4" stroke-linecap="round"/>
<path d="M143.0 154.0 L167.0 195.5" stroke="hsl(16 100% 62%)" stroke-width="1.4" stroke-linecap="round"/>
<path d="M128.0 163.0 L128.0 212.0" stroke="hsl(29 100% 62%)" stroke-width="2.6" stroke-linecap="round"/>
<path d="M108.0 162.6 L83.0 205.9" stroke="hsl(42 100% 62%)" stroke-width="1.4" stroke-linecap="round"/>
<path d="M89.0 150.5 L60.5 167.0" stroke="hsl(55 100% 62%)" stroke-width="1.4" stroke-linecap="round"/>
<path d="M98.0 128.0 L44.0 128.0" stroke="hsl(68 100% 62%)" stroke-width="2.6" stroke-linecap="round"/>
<path d="M97.7 110.5 L50.1 83.0" stroke="hsl(81 100% 62%)" stroke-width="1.4" stroke-linecap="round"/>
<path d="M108.0 93.4 L89.0 60.5" stroke="hsl(94 100% 62%)" stroke-width="1.4" stroke-linecap="round"/>
<path d="M128.0 83.0 L128.0 44.0" stroke="hsl(107 100% 62%)" stroke-width="2.6" stroke-linecap="round"/>
<path d="M143.0 102.0 L173.0 50.1" stroke="hsl(120 100% 62%)" stroke-width="1.4" stroke-linecap="round"/>
<path d="M158.3 110.5 L195.5 89.0" stroke="hsl(133 100% 62%)" stroke-width="1.4" stroke-linecap="round"/>
<path d="M128 50 L163 128 L128 206 L93 128 Z" fill="none" stroke="hsl(256 100% 70%)" stroke-width="3.4"/>
<path d="M128 60 L147 128 L128 196 L109 128 Z" fill="hsl(350 100% 56%)" opacity="0.24"/>
<circle cx="128" cy="128" r="11" fill="hsl(350 100% 72%)"/>
</g>
</svg>
